<mxfile host="app.diagrams.net" modified="2021-11-14T07:47:11.679Z" agent="5.0 (Windows NT 10.0; Win64; x64) AppleWebKit/537.36 (KHTML, like Gecko) Chrome/92.0.4515.131 Safari/537.36" etag="pwI4s19Op1FSMgp5CXGK" version="14.1.2" type="github">
  <diagram id="mthi4PEy8kBJ3JdOdZCB" name="Page-1">
    <mxGraphModel dx="868" dy="450" grid="1" gridSize="10" guides="1" tooltips="1" connect="1" arrows="1" fold="1" page="1" pageScale="1" pageWidth="827" pageHeight="1169" math="0" shadow="0">
      <root>
        <mxCell id="0" />
        <mxCell id="1" parent="0" />
        <mxCell id="DAA4EcEzuA7ggDwDAAPp-1" value="用户" style="shape=umlActor;verticalLabelPosition=bottom;verticalAlign=top;html=1;outlineConnect=0;" vertex="1" parent="1">
          <mxGeometry x="60" y="790" width="30" height="60" as="geometry" />
        </mxCell>
        <mxCell id="DAA4EcEzuA7ggDwDAAPp-2" value="管理员" style="shape=umlActor;verticalLabelPosition=bottom;verticalAlign=top;html=1;outlineConnect=0;" vertex="1" parent="1">
          <mxGeometry x="640" y="780" width="30" height="60" as="geometry" />
        </mxCell>
        <mxCell id="DAA4EcEzuA7ggDwDAAPp-9" value="" style="endArrow=none;html=1;" edge="1" parent="1">
          <mxGeometry width="50" height="50" relative="1" as="geometry">
            <mxPoint x="90" y="840" as="sourcePoint" />
            <mxPoint x="150" y="890" as="targetPoint" />
          </mxGeometry>
        </mxCell>
        <mxCell id="DAA4EcEzuA7ggDwDAAPp-10" value="" style="endArrow=none;html=1;" edge="1" parent="1" target="DAA4EcEzuA7ggDwDAAPp-6">
          <mxGeometry width="50" height="50" relative="1" as="geometry">
            <mxPoint x="90" y="822" as="sourcePoint" />
            <mxPoint x="140" y="780" as="targetPoint" />
          </mxGeometry>
        </mxCell>
        <mxCell id="DAA4EcEzuA7ggDwDAAPp-11" value="" style="endArrow=none;html=1;" edge="1" parent="1">
          <mxGeometry width="50" height="50" relative="1" as="geometry">
            <mxPoint x="90" y="780" as="sourcePoint" />
            <mxPoint x="174.70969813949705" y="702.3494433721276" as="targetPoint" />
          </mxGeometry>
        </mxCell>
        <mxCell id="DAA4EcEzuA7ggDwDAAPp-6" value="登录系统" style="ellipse;whiteSpace=wrap;html=1;" vertex="1" parent="1">
          <mxGeometry x="310" y="780" width="120" height="80" as="geometry" />
        </mxCell>
        <mxCell id="DAA4EcEzuA7ggDwDAAPp-13" value="" style="endArrow=none;html=1;" edge="1" parent="1">
          <mxGeometry width="50" height="50" relative="1" as="geometry">
            <mxPoint x="90" y="810" as="sourcePoint" />
            <mxPoint x="160" y="770" as="targetPoint" />
          </mxGeometry>
        </mxCell>
        <mxCell id="DAA4EcEzuA7ggDwDAAPp-14" value="订单管理" style="ellipse;whiteSpace=wrap;html=1;" vertex="1" parent="1">
          <mxGeometry x="160" y="740" width="110" height="60" as="geometry" />
        </mxCell>
        <mxCell id="DAA4EcEzuA7ggDwDAAPp-15" value="评价管理" style="ellipse;whiteSpace=wrap;html=1;" vertex="1" parent="1">
          <mxGeometry x="150" y="870" width="100" height="60" as="geometry" />
        </mxCell>
        <mxCell id="DAA4EcEzuA7ggDwDAAPp-18" value="用户信息管理" style="ellipse;whiteSpace=wrap;html=1;" vertex="1" parent="1">
          <mxGeometry x="170" y="660" width="110" height="60" as="geometry" />
        </mxCell>
        <mxCell id="DAA4EcEzuA7ggDwDAAPp-20" value="" style="endArrow=none;html=1;" edge="1" parent="1" source="DAA4EcEzuA7ggDwDAAPp-6">
          <mxGeometry width="50" height="50" relative="1" as="geometry">
            <mxPoint x="480" y="810" as="sourcePoint" />
            <mxPoint x="640" y="810" as="targetPoint" />
          </mxGeometry>
        </mxCell>
        <mxCell id="DAA4EcEzuA7ggDwDAAPp-21" value="菜品管理" style="ellipse;whiteSpace=wrap;html=1;" vertex="1" parent="1">
          <mxGeometry x="495" y="670" width="90" height="50" as="geometry" />
        </mxCell>
        <mxCell id="DAA4EcEzuA7ggDwDAAPp-22" value="系统管理" style="ellipse;whiteSpace=wrap;html=1;" vertex="1" parent="1">
          <mxGeometry x="480" y="740" width="90" height="50" as="geometry" />
        </mxCell>
        <mxCell id="DAA4EcEzuA7ggDwDAAPp-23" value="订单管理" style="ellipse;whiteSpace=wrap;html=1;" vertex="1" parent="1">
          <mxGeometry x="495" y="870" width="100" height="50" as="geometry" />
        </mxCell>
        <mxCell id="DAA4EcEzuA7ggDwDAAPp-24" value="" style="endArrow=none;html=1;" edge="1" parent="1">
          <mxGeometry width="50" height="50" relative="1" as="geometry">
            <mxPoint x="590" y="880" as="sourcePoint" />
            <mxPoint x="640" y="830" as="targetPoint" />
          </mxGeometry>
        </mxCell>
        <mxCell id="DAA4EcEzuA7ggDwDAAPp-25" value="" style="endArrow=none;html=1;" edge="1" parent="1" source="DAA4EcEzuA7ggDwDAAPp-21">
          <mxGeometry width="50" height="50" relative="1" as="geometry">
            <mxPoint x="590" y="700" as="sourcePoint" />
            <mxPoint x="650" y="770" as="targetPoint" />
          </mxGeometry>
        </mxCell>
        <mxCell id="DAA4EcEzuA7ggDwDAAPp-27" value="" style="endArrow=none;html=1;" edge="1" parent="1">
          <mxGeometry width="50" height="50" relative="1" as="geometry">
            <mxPoint x="580" y="770" as="sourcePoint" />
            <mxPoint x="640" y="790" as="targetPoint" />
          </mxGeometry>
        </mxCell>
      </root>
    </mxGraphModel>
  </diagram>
</mxfile>
